<mxfile host="Electron" agent="Mozilla/5.0 (X11; Linux x86_64) AppleWebKit/537.36 (KHTML, like Gecko) draw.io/24.7.17 Chrome/128.0.6613.36 Electron/32.0.1 Safari/537.36" version="24.7.17" pages="2">
  <diagram name="Page-1" id="WeKOTHHlvK0uBNBrpDl6">
    <mxGraphModel dx="926" dy="596" grid="1" gridSize="10" guides="1" tooltips="1" connect="1" arrows="1" fold="1" page="1" pageScale="1" pageWidth="850" pageHeight="1100" math="0" shadow="0">
      <root>
        <mxCell id="0" />
        <mxCell id="1" parent="0" />
        <mxCell id="VE8RLwTTS5uOwbAJNlwi-4" value="" style="edgeStyle=orthogonalEdgeStyle;rounded=0;orthogonalLoop=1;jettySize=auto;html=1;" parent="1" source="VE8RLwTTS5uOwbAJNlwi-1" target="VE8RLwTTS5uOwbAJNlwi-2" edge="1">
          <mxGeometry relative="1" as="geometry" />
        </mxCell>
        <mxCell id="VE8RLwTTS5uOwbAJNlwi-1" value="START" style="ellipse;whiteSpace=wrap;html=1;" parent="1" vertex="1">
          <mxGeometry x="379" y="40" width="80" height="50" as="geometry" />
        </mxCell>
        <mxCell id="FU4bhpmHri5rKJAf-eyq-2" value="" style="edgeStyle=orthogonalEdgeStyle;rounded=0;orthogonalLoop=1;jettySize=auto;html=1;" edge="1" parent="1" source="VE8RLwTTS5uOwbAJNlwi-2" target="FU4bhpmHri5rKJAf-eyq-1">
          <mxGeometry relative="1" as="geometry" />
        </mxCell>
        <mxCell id="VE8RLwTTS5uOwbAJNlwi-2" value="&lt;div&gt;startPin = 1&lt;/div&gt;" style="whiteSpace=wrap;html=1;align=center;" parent="1" vertex="1">
          <mxGeometry x="359" y="130" width="120" height="60" as="geometry" />
        </mxCell>
        <mxCell id="VE8RLwTTS5uOwbAJNlwi-14" value="" style="edgeStyle=orthogonalEdgeStyle;rounded=0;orthogonalLoop=1;jettySize=auto;html=1;" parent="1" source="VE8RLwTTS5uOwbAJNlwi-8" target="VE8RLwTTS5uOwbAJNlwi-12" edge="1">
          <mxGeometry relative="1" as="geometry" />
        </mxCell>
        <mxCell id="7SljeWOFclfa6yd0EDbY-4" value="" style="edgeStyle=orthogonalEdgeStyle;rounded=0;orthogonalLoop=1;jettySize=auto;html=1;" edge="1" parent="1" source="VE8RLwTTS5uOwbAJNlwi-8" target="7SljeWOFclfa6yd0EDbY-3">
          <mxGeometry relative="1" as="geometry" />
        </mxCell>
        <mxCell id="VE8RLwTTS5uOwbAJNlwi-8" value="ultrasonic distance &amp;lt; 0.9" style="rhombus;whiteSpace=wrap;html=1;" parent="1" vertex="1">
          <mxGeometry x="336" y="312" width="166" height="80" as="geometry" />
        </mxCell>
        <mxCell id="90oU29NHWHxlZce4k2Wm-1" style="edgeStyle=orthogonalEdgeStyle;rounded=0;orthogonalLoop=1;jettySize=auto;html=1;entryX=0;entryY=0.5;entryDx=0;entryDy=0;" parent="1" source="VE8RLwTTS5uOwbAJNlwi-12" target="r4nCOkW7U-tyaHJqqsyy-1" edge="1">
          <mxGeometry relative="1" as="geometry">
            <Array as="points">
              <mxPoint x="419" y="581" />
            </Array>
          </mxGeometry>
        </mxCell>
        <mxCell id="VE8RLwTTS5uOwbAJNlwi-12" value="&lt;ol&gt;&lt;li&gt;&amp;nbsp; &amp;nbsp;enaPin = 0&lt;/li&gt;&lt;li&gt;&amp;nbsp; &amp;nbsp;capture&lt;/li&gt;&lt;li&gt;&amp;nbsp; &amp;nbsp;identify&lt;/li&gt;&lt;li&gt;&amp;nbsp; &amp;nbsp;var*Pin(s) = var&lt;/li&gt;&lt;li&gt;&amp;nbsp; &amp;nbsp;enaPin = 1&lt;/li&gt;&lt;/ol&gt;" style="whiteSpace=wrap;html=1;align=left;" parent="1" vertex="1">
          <mxGeometry x="349" y="421" width="140" height="110" as="geometry" />
        </mxCell>
        <mxCell id="VE8RLwTTS5uOwbAJNlwi-15" value="yes" style="text;html=1;align=center;verticalAlign=middle;resizable=0;points=[];autosize=1;strokeColor=none;fillColor=none;" parent="1" vertex="1">
          <mxGeometry x="419" y="379" width="40" height="30" as="geometry" />
        </mxCell>
        <mxCell id="VE8RLwTTS5uOwbAJNlwi-21" value="no" style="text;html=1;align=center;verticalAlign=middle;resizable=0;points=[];autosize=1;strokeColor=none;fillColor=none;" parent="1" vertex="1">
          <mxGeometry x="309" y="322" width="40" height="30" as="geometry" />
        </mxCell>
        <mxCell id="VE8RLwTTS5uOwbAJNlwi-26" value="" style="edgeStyle=orthogonalEdgeStyle;rounded=0;orthogonalLoop=1;jettySize=auto;html=1;" parent="1" source="VE8RLwTTS5uOwbAJNlwi-22" edge="1">
          <mxGeometry relative="1" as="geometry">
            <mxPoint x="105" y="530" as="targetPoint" />
          </mxGeometry>
        </mxCell>
        <mxCell id="VE8RLwTTS5uOwbAJNlwi-22" value="no cane detected&lt;div&gt;summary&lt;/div&gt;" style="shape=parallelogram;perimeter=parallelogramPerimeter;whiteSpace=wrap;html=1;fixedSize=1;" parent="1" vertex="1">
          <mxGeometry x="35" y="440" width="140" height="50" as="geometry" />
        </mxCell>
        <mxCell id="VE8RLwTTS5uOwbAJNlwi-29" value="" style="edgeStyle=orthogonalEdgeStyle;rounded=0;orthogonalLoop=1;jettySize=auto;html=1;" parent="1" source="VE8RLwTTS5uOwbAJNlwi-25" target="VE8RLwTTS5uOwbAJNlwi-28" edge="1">
          <mxGeometry relative="1" as="geometry" />
        </mxCell>
        <mxCell id="VE8RLwTTS5uOwbAJNlwi-25" value="&lt;div&gt;&amp;nbsp; startPin = 0&lt;/div&gt;&lt;div&gt;enaPin = 0&lt;/div&gt;" style="whiteSpace=wrap;html=1;align=center;" parent="1" vertex="1">
          <mxGeometry x="45" y="530" width="120" height="60" as="geometry" />
        </mxCell>
        <mxCell id="VE8RLwTTS5uOwbAJNlwi-28" value="END" style="ellipse;whiteSpace=wrap;html=1;" parent="1" vertex="1">
          <mxGeometry x="65" y="655" width="80" height="40" as="geometry" />
        </mxCell>
        <mxCell id="6NztS7yO7g0CAMnmon1r-1" value="&lt;h1&gt;Raspi&lt;/h1&gt;" style="text;html=1;align=center;verticalAlign=middle;resizable=0;points=[];autosize=1;strokeColor=none;fillColor=none;" parent="1" vertex="1">
          <mxGeometry x="170" y="60" width="90" height="70" as="geometry" />
        </mxCell>
        <mxCell id="90oU29NHWHxlZce4k2Wm-3" style="edgeStyle=orthogonalEdgeStyle;rounded=0;orthogonalLoop=1;jettySize=auto;html=1;entryX=1;entryY=0.5;entryDx=0;entryDy=0;" parent="1" source="r4nCOkW7U-tyaHJqqsyy-1" target="FU4bhpmHri5rKJAf-eyq-1" edge="1">
          <mxGeometry relative="1" as="geometry">
            <Array as="points">
              <mxPoint x="720" y="580" />
              <mxPoint x="720" y="250" />
            </Array>
            <mxPoint x="420" y="200" as="targetPoint" />
          </mxGeometry>
        </mxCell>
        <mxCell id="r4nCOkW7U-tyaHJqqsyy-1" value="captured image&lt;div&gt;variety&lt;/div&gt;" style="shape=parallelogram;perimeter=parallelogramPerimeter;whiteSpace=wrap;html=1;fixedSize=1;" parent="1" vertex="1">
          <mxGeometry x="484" y="551" width="120" height="60" as="geometry" />
        </mxCell>
        <mxCell id="FU4bhpmHri5rKJAf-eyq-6" value="" style="edgeStyle=orthogonalEdgeStyle;rounded=0;orthogonalLoop=1;jettySize=auto;html=1;entryX=0.5;entryY=0;entryDx=0;entryDy=0;" edge="1" parent="1" source="FU4bhpmHri5rKJAf-eyq-1" target="VE8RLwTTS5uOwbAJNlwi-8">
          <mxGeometry relative="1" as="geometry">
            <mxPoint x="419" y="320" as="targetPoint" />
          </mxGeometry>
        </mxCell>
        <mxCell id="FU4bhpmHri5rKJAf-eyq-1" value="read ultrasonic" style="whiteSpace=wrap;html=1;" vertex="1" parent="1">
          <mxGeometry x="359" y="220" width="120" height="60" as="geometry" />
        </mxCell>
        <mxCell id="7SljeWOFclfa6yd0EDbY-1" value="&lt;font style=&quot;font-size: 21px;&quot; color=&quot;#990000&quot;&gt;!halt button&lt;/font&gt;" style="text;html=1;align=center;verticalAlign=middle;resizable=0;points=[];autosize=1;strokeColor=none;fillColor=none;" vertex="1" parent="1">
          <mxGeometry x="565" y="103" width="130" height="40" as="geometry" />
        </mxCell>
        <mxCell id="7SljeWOFclfa6yd0EDbY-6" style="edgeStyle=orthogonalEdgeStyle;rounded=0;orthogonalLoop=1;jettySize=auto;html=1;entryX=0;entryY=0.5;entryDx=0;entryDy=0;" edge="1" parent="1" source="7SljeWOFclfa6yd0EDbY-2" target="FU4bhpmHri5rKJAf-eyq-1">
          <mxGeometry relative="1" as="geometry">
            <Array as="points">
              <mxPoint x="105" y="250" />
            </Array>
          </mxGeometry>
        </mxCell>
        <mxCell id="7SljeWOFclfa6yd0EDbY-7" value="" style="edgeStyle=orthogonalEdgeStyle;rounded=0;orthogonalLoop=1;jettySize=auto;html=1;" edge="1" parent="1" source="7SljeWOFclfa6yd0EDbY-2" target="VE8RLwTTS5uOwbAJNlwi-22">
          <mxGeometry relative="1" as="geometry" />
        </mxCell>
        <mxCell id="7SljeWOFclfa6yd0EDbY-2" value="counter == 10" style="rhombus;whiteSpace=wrap;html=1;" vertex="1" parent="1">
          <mxGeometry x="50" y="312" width="110" height="80" as="geometry" />
        </mxCell>
        <mxCell id="7SljeWOFclfa6yd0EDbY-5" value="" style="edgeStyle=orthogonalEdgeStyle;rounded=0;orthogonalLoop=1;jettySize=auto;html=1;" edge="1" parent="1" source="7SljeWOFclfa6yd0EDbY-3" target="7SljeWOFclfa6yd0EDbY-2">
          <mxGeometry relative="1" as="geometry" />
        </mxCell>
        <mxCell id="7SljeWOFclfa6yd0EDbY-3" value="wait 1 sec&lt;div&gt;counter ++&lt;/div&gt;" style="whiteSpace=wrap;html=1;" vertex="1" parent="1">
          <mxGeometry x="189" y="322" width="120" height="60" as="geometry" />
        </mxCell>
      </root>
    </mxGraphModel>
  </diagram>
  <diagram id="z5wloPfniX-4UxF_5icZ" name="Page-2">
    <mxGraphModel dx="926" dy="1696" grid="1" gridSize="10" guides="1" tooltips="1" connect="1" arrows="1" fold="1" page="1" pageScale="1" pageWidth="850" pageHeight="1100" math="0" shadow="0">
      <root>
        <mxCell id="0" />
        <mxCell id="1" parent="0" />
        <mxCell id="zn735Z1knLt3o-5Z1EgC-4" value="" style="edgeStyle=orthogonalEdgeStyle;rounded=0;orthogonalLoop=1;jettySize=auto;html=1;" parent="1" source="zn735Z1knLt3o-5Z1EgC-1" edge="1">
          <mxGeometry relative="1" as="geometry">
            <mxPoint x="445" y="-68" as="targetPoint" />
          </mxGeometry>
        </mxCell>
        <mxCell id="zn735Z1knLt3o-5Z1EgC-1" value="START" style="ellipse;whiteSpace=wrap;html=1;" parent="1" vertex="1">
          <mxGeometry x="405" y="-158" width="80" height="50" as="geometry" />
        </mxCell>
        <mxCell id="zn735Z1knLt3o-5Z1EgC-9" value="" style="edgeStyle=orthogonalEdgeStyle;rounded=0;orthogonalLoop=1;jettySize=auto;html=1;" parent="1" target="zn735Z1knLt3o-5Z1EgC-5" edge="1">
          <mxGeometry relative="1" as="geometry">
            <mxPoint x="445" y="-8" as="sourcePoint" />
          </mxGeometry>
        </mxCell>
        <mxCell id="zn735Z1knLt3o-5Z1EgC-3" value="start = pinRead (startPin)" style="whiteSpace=wrap;html=1;" parent="1" vertex="1">
          <mxGeometry x="385" y="-67" width="120" height="60" as="geometry" />
        </mxCell>
        <mxCell id="zLo5jRSsdaMzBs_7mV9P-1" value="" style="edgeStyle=orthogonalEdgeStyle;rounded=0;orthogonalLoop=1;jettySize=auto;html=1;" edge="1" parent="1" source="zn735Z1knLt3o-5Z1EgC-5" target="4dsq7Zk5ifPTJzrUpzlf-1">
          <mxGeometry relative="1" as="geometry" />
        </mxCell>
        <mxCell id="pmCFTvNznwJvS5BKKOS7-1" style="edgeStyle=orthogonalEdgeStyle;rounded=0;orthogonalLoop=1;jettySize=auto;html=1;entryX=1;entryY=0.5;entryDx=0;entryDy=0;" edge="1" parent="1" source="zn735Z1knLt3o-5Z1EgC-5" target="zn735Z1knLt3o-5Z1EgC-3">
          <mxGeometry relative="1" as="geometry">
            <Array as="points">
              <mxPoint x="525" y="60" />
              <mxPoint x="525" y="-37" />
            </Array>
          </mxGeometry>
        </mxCell>
        <mxCell id="zn735Z1knLt3o-5Z1EgC-5" value="start == 1" style="rhombus;whiteSpace=wrap;html=1;" parent="1" vertex="1">
          <mxGeometry x="395" y="22" width="100" height="80" as="geometry" />
        </mxCell>
        <mxCell id="zn735Z1knLt3o-5Z1EgC-14" value="yes" style="text;html=1;align=center;verticalAlign=middle;resizable=0;points=[];autosize=1;strokeColor=none;fillColor=none;" parent="1" vertex="1">
          <mxGeometry x="457" y="102" width="40" height="30" as="geometry" />
        </mxCell>
        <mxCell id="zn735Z1knLt3o-5Z1EgC-20" value="" style="edgeStyle=orthogonalEdgeStyle;rounded=0;orthogonalLoop=1;jettySize=auto;html=1;" parent="1" source="zn735Z1knLt3o-5Z1EgC-15" target="zn735Z1knLt3o-5Z1EgC-19" edge="1">
          <mxGeometry relative="1" as="geometry" />
        </mxCell>
        <mxCell id="zn735Z1knLt3o-5Z1EgC-15" value="read enaPin, startPin" style="whiteSpace=wrap;html=1;align=center;" parent="1" vertex="1">
          <mxGeometry x="385" y="320" width="120" height="70" as="geometry" />
        </mxCell>
        <mxCell id="3rqJVD60PFFUAe77U6v7-1" value="" style="edgeStyle=orthogonalEdgeStyle;rounded=0;orthogonalLoop=1;jettySize=auto;html=1;" parent="1" source="zn735Z1knLt3o-5Z1EgC-19" target="v3FNmA9X_1OMvGBBLl93-1" edge="1">
          <mxGeometry relative="1" as="geometry" />
        </mxCell>
        <mxCell id="Xjp6e5purCdN4CMDp88F-4" value="" style="edgeStyle=orthogonalEdgeStyle;rounded=0;orthogonalLoop=1;jettySize=auto;html=1;" parent="1" source="zn735Z1knLt3o-5Z1EgC-19" edge="1">
          <mxGeometry relative="1" as="geometry">
            <mxPoint x="340" y="470" as="targetPoint" />
          </mxGeometry>
        </mxCell>
        <mxCell id="zn735Z1knLt3o-5Z1EgC-19" value="&lt;div&gt;startPin == 1&lt;/div&gt;" style="rhombus;whiteSpace=wrap;html=1;" parent="1" vertex="1">
          <mxGeometry x="385" y="440" width="119" height="60" as="geometry" />
        </mxCell>
        <mxCell id="sRux-5dNfKsYZGYOlUe9-6" value="" style="edgeStyle=orthogonalEdgeStyle;rounded=0;orthogonalLoop=1;jettySize=auto;html=1;" edge="1" parent="1" source="SEHgXujrHxkKUXOiJskX-3" target="sRux-5dNfKsYZGYOlUe9-5">
          <mxGeometry relative="1" as="geometry" />
        </mxCell>
        <mxCell id="SEHgXujrHxkKUXOiJskX-3" value="&lt;div style=&quot;&quot;&gt;&lt;ol&gt;&lt;li&gt;&lt;span style=&quot;background-color: initial;&quot;&gt;read varPins&lt;/span&gt;&lt;/li&gt;&lt;li&gt;rotate sorter&lt;/li&gt;&lt;li&gt;var*Count ++&lt;/li&gt;&lt;/ol&gt;&lt;/div&gt;" style="whiteSpace=wrap;html=1;align=left;" parent="1" vertex="1">
          <mxGeometry x="377" y="640" width="135" height="90" as="geometry" />
        </mxCell>
        <mxCell id="3rqJVD60PFFUAe77U6v7-2" value="" style="edgeStyle=orthogonalEdgeStyle;rounded=0;orthogonalLoop=1;jettySize=auto;html=1;" parent="1" source="v3FNmA9X_1OMvGBBLl93-1" target="SEHgXujrHxkKUXOiJskX-3" edge="1">
          <mxGeometry relative="1" as="geometry" />
        </mxCell>
        <mxCell id="sRux-5dNfKsYZGYOlUe9-1" style="edgeStyle=orthogonalEdgeStyle;rounded=0;orthogonalLoop=1;jettySize=auto;html=1;entryX=1;entryY=0.5;entryDx=0;entryDy=0;" edge="1" parent="1" source="v3FNmA9X_1OMvGBBLl93-1" target="zn735Z1knLt3o-5Z1EgC-19">
          <mxGeometry relative="1" as="geometry">
            <Array as="points">
              <mxPoint x="560" y="570" />
              <mxPoint x="560" y="470" />
            </Array>
          </mxGeometry>
        </mxCell>
        <mxCell id="v3FNmA9X_1OMvGBBLl93-1" value="enaPin == 1" style="rhombus;whiteSpace=wrap;html=1;" parent="1" vertex="1">
          <mxGeometry x="388.5" y="540" width="113" height="60" as="geometry" />
        </mxCell>
        <mxCell id="3rqJVD60PFFUAe77U6v7-3" value="yes" style="text;html=1;align=center;verticalAlign=middle;resizable=0;points=[];autosize=1;strokeColor=none;fillColor=none;" parent="1" vertex="1">
          <mxGeometry x="445" y="590" width="40" height="30" as="geometry" />
        </mxCell>
        <mxCell id="3rqJVD60PFFUAe77U6v7-5" value="yes" style="text;html=1;align=center;verticalAlign=middle;resizable=0;points=[];autosize=1;strokeColor=none;fillColor=none;" parent="1" vertex="1">
          <mxGeometry x="445" y="500" width="40" height="30" as="geometry" />
        </mxCell>
        <mxCell id="3rqJVD60PFFUAe77U6v7-12" value="no" style="text;html=1;align=center;verticalAlign=middle;resizable=0;points=[];autosize=1;strokeColor=none;fillColor=none;" parent="1" vertex="1">
          <mxGeometry x="352" y="435" width="40" height="30" as="geometry" />
        </mxCell>
        <mxCell id="3rqJVD60PFFUAe77U6v7-19" value="" style="edgeStyle=orthogonalEdgeStyle;rounded=0;orthogonalLoop=1;jettySize=auto;html=1;" parent="1" source="3rqJVD60PFFUAe77U6v7-15" edge="1">
          <mxGeometry relative="1" as="geometry">
            <mxPoint x="700" y="1019" as="targetPoint" />
          </mxGeometry>
        </mxCell>
        <mxCell id="3rqJVD60PFFUAe77U6v7-22" value="" style="edgeStyle=orthogonalEdgeStyle;rounded=0;orthogonalLoop=1;jettySize=auto;html=1;" parent="1" source="3rqJVD60PFFUAe77U6v7-15" target="3rqJVD60PFFUAe77U6v7-21" edge="1">
          <mxGeometry relative="1" as="geometry" />
        </mxCell>
        <mxCell id="3rqJVD60PFFUAe77U6v7-15" value="var*Count &amp;gt; 50" style="rhombus;whiteSpace=wrap;html=1;align=center;" parent="1" vertex="1">
          <mxGeometry x="392.5" y="979" width="105" height="80" as="geometry" />
        </mxCell>
        <mxCell id="sRux-5dNfKsYZGYOlUe9-13" style="edgeStyle=orthogonalEdgeStyle;rounded=0;orthogonalLoop=1;jettySize=auto;html=1;entryX=1;entryY=0.25;entryDx=0;entryDy=0;" edge="1" parent="1" source="3rqJVD60PFFUAe77U6v7-21" target="zLo5jRSsdaMzBs_7mV9P-2">
          <mxGeometry relative="1" as="geometry">
            <Array as="points">
              <mxPoint x="700" y="1149" />
              <mxPoint x="700" y="245" />
            </Array>
          </mxGeometry>
        </mxCell>
        <mxCell id="3rqJVD60PFFUAe77U6v7-21" value="empty current var container" style="whiteSpace=wrap;html=1;align=center;" parent="1" vertex="1">
          <mxGeometry x="367.5" y="1120" width="155" height="61" as="geometry" />
        </mxCell>
        <mxCell id="3rqJVD60PFFUAe77U6v7-23" value="yes" style="text;html=1;align=center;verticalAlign=middle;resizable=0;points=[];autosize=1;strokeColor=none;fillColor=none;" parent="1" vertex="1">
          <mxGeometry x="445.5" y="1049" width="40" height="30" as="geometry" />
        </mxCell>
        <mxCell id="HhUFNQrQLxi4rKws6Y5q-8" value="&lt;h1&gt;Arduino&lt;/h1&gt;" style="text;html=1;align=center;verticalAlign=middle;resizable=0;points=[];autosize=1;strokeColor=none;fillColor=none;" parent="1" vertex="1">
          <mxGeometry x="105" y="20" width="120" height="70" as="geometry" />
        </mxCell>
        <mxCell id="joWFOpW57L6ztbKAYNPN-3" value="p2" style="text;html=1;align=center;verticalAlign=middle;resizable=0;points=[];autosize=1;strokeColor=none;fillColor=none;" parent="1" vertex="1">
          <mxGeometry x="520" y="318" width="40" height="30" as="geometry" />
        </mxCell>
        <mxCell id="zLo5jRSsdaMzBs_7mV9P-3" value="" style="edgeStyle=orthogonalEdgeStyle;rounded=0;orthogonalLoop=1;jettySize=auto;html=1;" edge="1" parent="1" source="4dsq7Zk5ifPTJzrUpzlf-1" target="zLo5jRSsdaMzBs_7mV9P-2">
          <mxGeometry relative="1" as="geometry" />
        </mxCell>
        <mxCell id="4dsq7Zk5ifPTJzrUpzlf-1" value="&amp;nbsp;Start conveyor" style="whiteSpace=wrap;html=1;" parent="1" vertex="1">
          <mxGeometry x="385" y="140" width="120" height="60" as="geometry" />
        </mxCell>
        <mxCell id="4dsq7Zk5ifPTJzrUpzlf-4" value="stop conveyor" style="whiteSpace=wrap;html=1;" parent="1" vertex="1">
          <mxGeometry x="220" y="440" width="120" height="60" as="geometry" />
        </mxCell>
        <mxCell id="zLo5jRSsdaMzBs_7mV9P-4" value="" style="edgeStyle=orthogonalEdgeStyle;rounded=0;orthogonalLoop=1;jettySize=auto;html=1;" edge="1" parent="1" source="zLo5jRSsdaMzBs_7mV9P-2" target="zn735Z1knLt3o-5Z1EgC-15">
          <mxGeometry relative="1" as="geometry" />
        </mxCell>
        <mxCell id="zLo5jRSsdaMzBs_7mV9P-2" value="release cane" style="whiteSpace=wrap;html=1;" vertex="1" parent="1">
          <mxGeometry x="385" y="230" width="120" height="60" as="geometry" />
        </mxCell>
        <mxCell id="sRux-5dNfKsYZGYOlUe9-2" value="no" style="text;html=1;align=center;verticalAlign=middle;resizable=0;points=[];autosize=1;strokeColor=none;fillColor=none;" vertex="1" parent="1">
          <mxGeometry x="500" y="538" width="40" height="30" as="geometry" />
        </mxCell>
        <mxCell id="sRux-5dNfKsYZGYOlUe9-8" style="edgeStyle=orthogonalEdgeStyle;rounded=0;orthogonalLoop=1;jettySize=auto;html=1;entryX=0;entryY=0.5;entryDx=0;entryDy=0;" edge="1" parent="1" source="sRux-5dNfKsYZGYOlUe9-3" target="sRux-5dNfKsYZGYOlUe9-5">
          <mxGeometry relative="1" as="geometry">
            <Array as="points">
              <mxPoint x="320" y="900" />
              <mxPoint x="320" y="790" />
            </Array>
          </mxGeometry>
        </mxCell>
        <mxCell id="sRux-5dNfKsYZGYOlUe9-11" value="" style="edgeStyle=orthogonalEdgeStyle;rounded=0;orthogonalLoop=1;jettySize=auto;html=1;entryX=0.5;entryY=0;entryDx=0;entryDy=0;" edge="1" parent="1" source="sRux-5dNfKsYZGYOlUe9-3" target="3rqJVD60PFFUAe77U6v7-15">
          <mxGeometry relative="1" as="geometry" />
        </mxCell>
        <mxCell id="sRux-5dNfKsYZGYOlUe9-3" value="ultrasonic&amp;lt;10" style="rhombus;whiteSpace=wrap;html=1;" vertex="1" parent="1">
          <mxGeometry x="385" y="860" width="120" height="80" as="geometry" />
        </mxCell>
        <mxCell id="sRux-5dNfKsYZGYOlUe9-7" value="" style="edgeStyle=orthogonalEdgeStyle;rounded=0;orthogonalLoop=1;jettySize=auto;html=1;" edge="1" parent="1" source="sRux-5dNfKsYZGYOlUe9-5" target="sRux-5dNfKsYZGYOlUe9-3">
          <mxGeometry relative="1" as="geometry" />
        </mxCell>
        <mxCell id="sRux-5dNfKsYZGYOlUe9-5" value="read ultrasonic" style="whiteSpace=wrap;html=1;" vertex="1" parent="1">
          <mxGeometry x="385" y="760" width="120" height="60" as="geometry" />
        </mxCell>
        <mxCell id="sRux-5dNfKsYZGYOlUe9-9" value="no" style="text;html=1;align=center;verticalAlign=middle;resizable=0;points=[];autosize=1;strokeColor=none;fillColor=none;" vertex="1" parent="1">
          <mxGeometry x="340" y="868" width="40" height="30" as="geometry" />
        </mxCell>
        <mxCell id="sRux-5dNfKsYZGYOlUe9-12" value="yes" style="text;html=1;align=center;verticalAlign=middle;resizable=0;points=[];autosize=1;strokeColor=none;fillColor=none;" vertex="1" parent="1">
          <mxGeometry x="440" y="938" width="40" height="30" as="geometry" />
        </mxCell>
        <mxCell id="pmCFTvNznwJvS5BKKOS7-2" value="no" style="text;html=1;align=center;verticalAlign=middle;resizable=0;points=[];autosize=1;strokeColor=none;fillColor=none;" vertex="1" parent="1">
          <mxGeometry x="520" y="38" width="40" height="30" as="geometry" />
        </mxCell>
        <mxCell id="pmCFTvNznwJvS5BKKOS7-3" style="edgeStyle=orthogonalEdgeStyle;rounded=0;orthogonalLoop=1;jettySize=auto;html=1;entryX=0.014;entryY=0.376;entryDx=0;entryDy=0;entryPerimeter=0;" edge="1" parent="1" source="4dsq7Zk5ifPTJzrUpzlf-4" target="zn735Z1knLt3o-5Z1EgC-3">
          <mxGeometry relative="1" as="geometry">
            <Array as="points">
              <mxPoint x="280" y="-44" />
            </Array>
          </mxGeometry>
        </mxCell>
      </root>
    </mxGraphModel>
  </diagram>
</mxfile>
